<svg id="adf74979-e824-4cb5-a4f1-53a3b90ccca0" data-name="Layer 1" viewBox="0 0 164.57 42.75"><defs><style>
      .a2d77239-9094-48e6-8334-d6c7010dc27b {
        fill: #000089;
      }

      .ba33f078-4e5c-43f8-b06b-037809d0be0e {
        fill: #60c;
      }
    </style></defs><g id="e0a616cd-30b0-4be6-aa8f-06feb4f1af9c" data-name="Group 190"><g id="e5670012-033a-44cf-a00b-22f17cd2866c" data-name="Group 189"><g id="b9fd4928-9d8d-42cc-acdc-e778066aa45e" data-name="Group 188"><g id="efbafcf5-c682-4c79-bf0d-510a284cfbf3" data-name="Group 187"><path id="fadabd1a-184d-450e-bff7-1290e24d6ae6" data-name="Path 1001" class="a2d77239-9094-48e6-8334-d6c7010dc27b" d="M4.26,30.39l8.05-22A4.66,4.66,0,0,1,14.2,6a5.46,5.46,0,0,1,2.92-.79A5.6,5.6,0,0,1,20.05,6a4.23,4.23,0,0,1,1.87,2.38l8.08,22H24.46l-1.66-5H11.29l-1.73,5ZM12.81,21h8.51L17.75,10.11a.59.59,0,0,0-.23-.35.69.69,0,0,0-.37-.1.51.51,0,0,0-.35.13.72.72,0,0,0-.21.33Z"></path><path id="e769d0b7-28ba-444f-9b1e-803c000cfa2d" data-name="Path 1002" class="a2d77239-9094-48e6-8334-d6c7010dc27b" d="M43.92,12.68a8,8,0,0,1,3,2.05,9,9,0,0,1,1.84,3.11,11.47,11.47,0,0,1,.63,3.9,9.89,9.89,0,0,1-1.07,4.71,8.09,8.09,0,0,1-3,3.2,8.7,8.7,0,0,1-4.59,1.16,7.21,7.21,0,0,1-2.17-.31,6.27,6.27,0,0,1-1.87-.92,5.72,5.72,0,0,1-1.4-1.42h0v10H30.35V21.73a10.92,10.92,0,0,1,1.17-5.17,8.22,8.22,0,0,1,3.3-3.41,10.16,10.16,0,0,1,5-1.2,10.42,10.42,0,0,1,4,.73M37.4,16.79a4.54,4.54,0,0,0-1.59,1.91,6.86,6.86,0,0,0,0,5.37A4.54,4.54,0,0,0,37.4,26a4.66,4.66,0,0,0,4.93,0,4.57,4.57,0,0,0,1.57-1.91,6.86,6.86,0,0,0,0-5.37,4.38,4.38,0,0,0-6.5-1.91"></path><path id="e2c25472-4a8c-455a-991a-ead4877fa6c9" data-name="Path 1003" class="a2d77239-9094-48e6-8334-d6c7010dc27b" d="M64.5,12.68a8,8,0,0,1,3,2.05,9.15,9.15,0,0,1,1.84,3.11,11.47,11.47,0,0,1,.63,3.9,9.78,9.78,0,0,1-1.08,4.71,8.06,8.06,0,0,1-3,3.2,8.73,8.73,0,0,1-4.6,1.16,7.19,7.19,0,0,1-2.16-.31,6.32,6.32,0,0,1-1.88-.92,5.86,5.86,0,0,1-1.39-1.42h0v10H51V21.73a10.79,10.79,0,0,1,1.16-5.17,8.3,8.3,0,0,1,3.31-3.41,10.13,10.13,0,0,1,5-1.2,10.57,10.57,0,0,1,4,.73M58,16.79A4.54,4.54,0,0,0,56.4,18.7a6.86,6.86,0,0,0,0,5.37A4.54,4.54,0,0,0,58,26a4.64,4.64,0,0,0,4.92,0,4.59,4.59,0,0,0,1.58-1.91,6.86,6.86,0,0,0,0-5.37,4.59,4.59,0,0,0-1.58-1.91,4.64,4.64,0,0,0-4.92,0"></path><path id="a72c5376-2c39-44d1-a079-f23c57fa3e66" data-name="Path 1004" class="a2d77239-9094-48e6-8334-d6c7010dc27b" d="M71.78,30.39V26.25h8.79a1.57,1.57,0,0,0,.76-.17,1.32,1.32,0,0,0,.72-1.2,1.36,1.36,0,0,0-.19-.74,1.49,1.49,0,0,0-1.29-.71H77.18a8.37,8.37,0,0,1-3.13-.55,4.69,4.69,0,0,1-2.22-1.76,5.65,5.65,0,0,1-.83-3.2,5.27,5.27,0,0,1,.76-2.77,5.83,5.83,0,0,1,2-2,5.65,5.65,0,0,1,2.84-.76h8.44v4.14h-8a1.33,1.33,0,0,0-.93.35,1.17,1.17,0,0,0-.41.92,1.22,1.22,0,0,0,.39.93,1.31,1.31,0,0,0,1,.37H80.5a9,9,0,0,1,3.36.59,4.59,4.59,0,0,1,2.19,1.82,6,6,0,0,1,.77,3.25,5.46,5.46,0,0,1-.77,2.84A5.86,5.86,0,0,1,84,29.63a5.67,5.67,0,0,1-2.93.75Z"></path><path id="f35d0845-fafd-41b4-9d4d-8902ca66d446" data-name="Path 1005" class="ba33f078-4e5c-43f8-b06b-037809d0be0e" d="M90,30.39V16.51H86.89V12.38H90V9.73a4.72,4.72,0,0,1,4.26-5.12,4.12,4.12,0,0,1,.86,0h5.12V8.74H96a1.14,1.14,0,0,0-.8.32,1.08,1.08,0,0,0-.33.81v2.51h4.62v4.13H94.87V30.39Z"></path><path id="b37b28f4-d75e-411c-83d2-5023fc0ed9df" data-name="Path 1006" class="ba33f078-4e5c-43f8-b06b-037809d0be0e" d="M109.1,30.81a9.86,9.86,0,0,1-5-1.25,9.45,9.45,0,0,1-3.46-3.39,9.62,9.62,0,0,1,0-9.57,9.45,9.45,0,0,1,3.46-3.39,10.53,10.53,0,0,1,10,0,9.45,9.45,0,0,1,3.46,3.39,9.67,9.67,0,0,1,0,9.57,9.45,9.45,0,0,1-3.46,3.39,9.86,9.86,0,0,1-5,1.25m0-4.13a4.55,4.55,0,0,0,2.56-.71,4.69,4.69,0,0,0,1.66-1.9,6.45,6.45,0,0,0,0-5.37,4.65,4.65,0,0,0-1.66-1.91,5,5,0,0,0-5.12,0,4.65,4.65,0,0,0-1.66,1.91,6.45,6.45,0,0,0,0,5.37,4.69,4.69,0,0,0,1.66,1.9,4.53,4.53,0,0,0,2.56.71"></path><path id="ef9b91ca-48c0-4415-963c-83f298315242" data-name="Path 1007" class="ba33f078-4e5c-43f8-b06b-037809d0be0e" d="M120.4,30.39V17.5a4.71,4.71,0,0,1,4.26-5.12,4.12,4.12,0,0,1,.86,0h5v4.13h-4.14a1.12,1.12,0,0,0-.8.32,1.06,1.06,0,0,0-.33.81V30.39Z"></path><path id="a3a1cb79-4b9f-4d58-8142-6285f55fa491" data-name="Path 1008" class="ba33f078-4e5c-43f8-b06b-037809d0be0e" d="M140,30.39a10.25,10.25,0,0,1-5-1.2A9.31,9.31,0,0,1,131.59,26a8.87,8.87,0,0,1,0-9.14,9.28,9.28,0,0,1,3.47-3.23,10.14,10.14,0,0,1,5-1.2h2.26v4.13H140a5,5,0,0,0-2.56.64,4.32,4.32,0,0,0-1.65,1.74,5.59,5.59,0,0,0,0,5,4.28,4.28,0,0,0,1.65,1.75,5,5,0,0,0,2.56.64h2.26v4.13Z"></path><path id="fd4d422b-f906-4edd-8480-7ff29dca291e" data-name="Path 1009" class="ba33f078-4e5c-43f8-b06b-037809d0be0e" d="M153,30.39a11.53,11.53,0,0,1-5.35-1.19A8.79,8.79,0,0,1,144.08,26a8.62,8.62,0,0,1-1.25-4.59,10.28,10.28,0,0,1,1.16-5,8.43,8.43,0,0,1,3.18-3.28A9,9,0,0,1,151.72,12a8.79,8.79,0,0,1,4.93,1.27,7.46,7.46,0,0,1,2.77,3.41,12.1,12.1,0,0,1,.88,4.75c0,.24,0,.52,0,.83a4.3,4.3,0,0,1-.1.72H148a4,4,0,0,0,1,1.84,4.13,4.13,0,0,0,1.73,1.11,6.91,6.91,0,0,0,2.34.37h5v4.13Zm-5-10.7h7.51a6.69,6.69,0,0,0-.25-1.26A3.5,3.5,0,0,0,154,16.61a3.39,3.39,0,0,0-1-.49,4.33,4.33,0,0,0-1.24-.18,3.68,3.68,0,0,0-1.57.32,3.45,3.45,0,0,0-1.15.85,4,4,0,0,0-.72,1.2,5.86,5.86,0,0,0-.37,1.38"></path></g></g></g></g></svg>